# Blender v2.79 (sub 0) OBJ File: ''
# www.blender.org
o Plane
v -4.000000 0.000001 -4.000000
v 4.000000 -0.000001 4.000000
v -4.000000 -0.000001 4.000000
v 4.000000 0.000001 -4.000000
v 4.000000 -0.050001 4.000000
v -4.000000 -0.049999 -4.000000
v -4.000000 -0.050001 4.000000
v 4.000000 -0.049999 -4.000000
vt 0.000000 0.000000
vt 0.000000 10.000000
vt 10.000000 10.000000
vt 10.000000 0.000000
vt 0.000000 0.000000
vt 0.000000 10.000000
vt 10.000000 10.000000
vt 10.000000 0.000000
vt 10.000000 10.000000
vt 10.000000 0.000000
vt 0.000000 10.000000
vt 10.000000 0.000000
vn 0.0000 1.0000 0.0000
vn 0.0000 -1.0000 -0.0000
vn 0.0000 0.0000 -1.0000
vn 0.0000 0.0000 1.0000
vn 1.0000 0.0000 0.0000
vn -1.0000 0.0000 0.0000
s 1
f 1/1/1 3/2/1 2/3/1
f 1/1/1 2/3/1 4/4/1
f 5/5/2 7/6/2 6/7/2
f 1/8/3 4/9/3 8/10/3
f 2/11/4 3/12/4 7/6/4
f 4/9/5 2/11/5 5/5/5
f 3/12/6 1/8/6 6/7/6
f 5/5/2 6/7/2 8/10/2
f 1/8/3 8/10/3 6/7/3
f 2/11/4 7/6/4 5/5/4
f 4/9/5 5/5/5 8/10/5
f 3/12/6 6/7/6 7/6/6
