# Blender v2.79 (sub 0) OBJ File: ''
# www.blender.org
mtllib room.mtl
o Cube.001
v 3.499998 -0.050000 -2.499999
v 3.499998 -0.050000 2.499999
v -3.499998 -0.050000 2.499999
v -3.499997 -0.050000 -2.500000
v 3.500000 0.050000 -2.499997
v -3.499998 0.050000 -2.499999
v -3.500000 0.050000 2.499997
v 3.499995 0.050000 2.500000
vn 0.0000 -1.0000 -0.0000
vn -0.0000 1.0000 0.0000
vn 1.0000 0.0000 0.0000
vn -0.0000 -0.0000 1.0000
vn -1.0000 -0.0000 -0.0000
vn 0.0000 0.0000 -1.0000
usemtl Material.002
s 1
f 1//1 2//1 3//1 4//1
f 5//2 6//2 7//2 8//2
f 1//3 5//3 8//3 2//3
f 2//4 8//4 7//4 3//4
f 3//5 7//5 6//5 4//5
f 5//6 1//6 4//6 6//6
o Cube.003
v -3.501224 2.449576 -2.470360
v -3.501067 0.000952 -2.493349
v -3.496150 -0.025905 2.483500
v -3.496307 2.422719 2.506487
v -3.403852 2.449584 -2.470529
v -3.398934 2.422725 2.506321
v -3.398777 -0.025898 2.483334
v -3.403695 0.000958 -2.493513
vn 1.0000 0.0001 -0.0010
vn -0.0017 0.0094 -1.0000
vn -0.0001 1.0000 0.0054
vn 0.0017 -0.0094 1.0000
usemtl Material.004
s 1
f 9//7 12//7 11//7 10//7
f 13//7 14//7 15//7 16//7
f 9//8 13//8 16//8 10//8
f 10//9 11//9 15//9 16//9
f 11//10 15//10 14//10 12//10
f 13//9 9//9 12//9 14//9
o Cube.004_Cube.010
v 3.512025 2.449577 2.481027
v 3.511969 0.000952 2.504013
v 3.485345 -0.025906 -2.472097
v 3.485402 2.422719 -2.495082
v 3.414654 2.449584 2.481934
v 3.388032 2.422726 -2.494177
v 3.387975 -0.025898 -2.471191
v 3.414598 0.000959 2.504917
vn -1.0000 0.0001 0.0053
vn 0.0093 0.0094 0.9999
vn 0.0000 1.0000 -0.0054
vn -0.0093 -0.0094 -0.9999
usemtl Material.010
s 1
f 17//11 20//11 19//11 18//11
f 21//11 22//11 23//11 24//11
f 17//12 21//12 24//12 18//12
f 18//13 19//13 23//13 24//13
f 19//14 23//14 22//14 20//14
f 21//13 17//13 20//13 22//13
o Cube.001_Cube.009
v 3.474503 0.039923 2.493481
v 3.456063 2.442019 2.449129
v -3.525297 2.420615 2.443875
v -3.506855 0.018518 2.488228
v 3.474703 0.038127 2.396125
v -3.506657 0.016721 2.390872
v -3.525100 2.418818 2.346519
v 3.456258 2.440223 2.351772
vn 0.0008 -0.0185 -0.9998
vn 1.0000 0.0077 0.0019
vn -0.0031 0.9998 -0.0185
vn -1.0000 -0.0077 -0.0019
vn 0.0031 -0.9998 0.0185
usemtl Material.009
s 1
f 25//15 28//15 27//15 26//15
f 29//15 30//15 31//15 32//15
f 25//16 29//16 32//16 26//16
f 26//17 32//17 31//17 27//17
f 27//18 31//18 30//18 28//18
f 29//19 25//19 28//19 30//19
o Cube.002
v -3.488700 0.040055 -2.494605
v -3.469715 2.442358 -2.463208
v 3.509942 2.419958 -2.442761
v 3.490955 0.017657 -2.474156
v -3.489943 0.038786 -2.397240
v 3.489714 0.016387 -2.376791
v 3.508701 2.418688 -2.345396
v -3.470955 2.441088 -2.365844
vn -0.0030 -0.0130 0.9999
vn -0.9999 0.0081 -0.0126
vn 0.0032 0.9999 0.0131
vn 0.9999 -0.0081 0.0126
usemtl Material.003
s 1
f 33//20 36//20 35//20 34//20
f 37//20 38//20 39//20 40//20
f 33//21 37//21 40//21 34//21
f 34//22 40//22 39//22 35//22
f 35//23 39//23 38//23 36//23
f 37//22 38//22 36//22 33//22
