# Blender v2.79 (sub 0) OBJ File: ''
# www.blender.org
mtllib room.mtl
o Plane
v -4.013033 -0.050219 -3.792660
v 4.013033 -0.050220 3.792660
v -4.013033 -0.050220 3.792660
v 4.013033 -0.000001 3.792660
v -4.013033 0.000001 -3.792660
v -4.013033 -0.000001 3.792660
v 4.013033 0.000001 -3.792660
v 4.013033 -0.050219 -3.792660
v 4.013033 2.901337 -3.792660
v 4.013033 2.901335 3.792660
v -4.013033 2.901337 -3.792660
v -4.013033 2.901335 3.792660
v -4.013033 2.901335 3.792660
v 4.013033 2.901335 3.792660
vn 0.0000 -1.0000 -0.0000
vn 0.0000 1.0000 0.0000
vn 0.0000 0.0000 -1.0000
vn 0.0000 0.0000 1.0000
vn 1.0000 0.0000 0.0000
vn -1.0000 0.0000 0.0000
usemtl None
s 1
f 1//1 2//1 3//1
f 4//2 5//2 6//2
f 1//3 7//3 8//3
f 2//4 6//4 3//4
f 8//5 4//5 2//5
f 3//6 5//6 1//6
f 9//4 5//4 7//4
f 10//6 7//6 4//6
f 11//5 6//5 5//5
f 12//3 4//3 6//3
f 1//1 8//1 2//1
f 4//2 7//2 5//2
f 1//3 5//3 7//3
f 2//4 4//4 6//4
f 8//5 7//5 4//5
f 3//6 6//6 5//6
f 9//4 11//4 5//4
f 10//6 9//6 7//6
f 11//5 13//5 6//5
f 12//3 14//3 4//3
