# Blender v2.79 (sub 0) OBJ File: ''
# www.blender.org
o Plane
v 4.000000 3.000001 -4.000000
v -4.000000 0.000001 -4.000000
v 4.000000 0.000001 -4.000000
v -4.000000 3.000001 -4.000000
v 4.000000 2.999999 4.000000
v 4.000000 -0.000001 4.000000
v -4.000000 -0.000001 4.000000
v -4.000000 2.999999 4.000000
vt 0.502002 0.998999
vt 0.998999 0.502002
vt 0.998999 0.998999
vt 0.498999 0.002002
vt 0.498999 0.498999
vt 0.002002 0.498999
vt 0.002002 0.998999
vt 0.498999 0.502002
vt 0.498999 0.998999
vt 0.502002 0.498999
vt 0.998999 0.002002
vt 0.998999 0.498999
vt 0.997998 0.001001
vt 0.501001 0.497998
vt 0.501001 0.001001
vt 0.001001 0.997998
vt 0.001001 0.501001
vt 0.497998 0.501001
vt 0.001001 0.497998
vt 0.001001 0.001001
vt 0.497998 0.001001
vt 0.501001 0.997998
vt 0.501001 0.501001
vt 0.997998 0.501001
vn 0.0000 -0.0000 1.0000
vn -1.0000 -0.0000 0.0000
vn 1.0000 0.0000 0.0000
vn 0.0000 0.0000 -1.0000
s 1
f 1/1/1 2/2/1 3/3/1
f 1/4/1 4/5/1 2/6/1
f 5/7/2 3/8/2 6/9/2
f 4/10/3 7/11/3 2/12/3
f 8/13/4 6/14/4 7/15/4
f 5/16/2 1/17/2 3/18/2
f 4/19/3 8/20/3 7/21/3
f 8/22/4 5/23/4 6/24/4
