# Blender v2.79 (sub 0) OBJ File: ''
# www.blender.org
o Plane
v 4.000000 2.999999 -4.000000
v -4.000000 0.000003 -4.000000
v 4.000000 0.000003 -4.000000
v 4.000000 2.999993 4.000000
v 4.000000 -0.000003 4.000000
v -4.000000 2.999999 -4.000000
v -4.000000 -0.000003 4.000000
v -4.000000 2.999993 4.000000
v -4.000000 2.999993 4.000000
v 4.000000 2.999993 4.000000
vn 0.0000 -0.0000 1.0000
vn -1.0000 -0.0000 0.0000
vn 1.0000 0.0000 0.0000
vn 0.0000 0.0000 -1.0000
s 1
f 1//1 2//1 3//1
f 4//2 3//2 5//2
f 6//3 7//3 2//3
f 8//4 5//4 7//4
f 1//1 6//1 2//1
f 4//2 1//2 3//2
f 6//3 9//3 7//3
f 8//4 10//4 5//4
