# Blender v2.79 (sub 0) OBJ File: 'untitled.blend'
# www.blender.org
mtllib walls.mtl
o Plane
v 4.013033 -0.000002 3.792660
v -4.013033 0.000002 -3.792660
v -4.013033 -0.000002 3.792660
v 4.013033 0.000002 -3.792660
v 4.013033 2.901338 -3.792660
v 4.013033 2.901334 3.792660
v -4.013033 2.901338 -3.792660
v -4.013033 2.901334 3.792660
v -4.013033 2.901334 3.792660
v 4.013033 2.901334 3.792660
vn 0.0000 -0.0000 1.0000
vn -1.0000 0.0000 0.0000
vn 1.0000 -0.0000 0.0000
vn 0.0000 0.0000 -1.0000
usemtl None
s 1
f 5//1 2//1 4//1
f 6//2 4//2 1//2
f 7//3 3//3 2//3
f 8//4 1//4 3//4
f 5//1 7//1 2//1
f 6//2 5//2 4//2
f 7//3 9//3 3//3
f 8//4 10//4 1//4
