# Blender v2.79 (sub 0) OBJ File: ''
# www.blender.org
mtllib frigorifero_Scene.mtl
o Cube_Cube_Aluminum
v -0.121790 0.811139 0.272602
v -0.121790 0.789603 0.272602
v -0.143326 0.789603 0.272602
v -0.143326 0.811139 0.272602
v -0.143326 0.789603 0.294687
v -0.143326 0.811139 0.294687
v -0.121790 0.811139 0.294687
v -0.121790 0.789603 0.294687
v -0.121790 0.811139 0.316773
v -0.121790 0.789603 0.316773
v -0.143326 0.811139 0.316773
v -0.143326 0.789603 0.316773
v -0.121790 0.679174 0.316773
v -0.121790 0.679174 0.294687
v -0.143326 0.679174 0.316773
v -0.143326 0.679174 0.294687
v -0.143326 0.657088 0.294687
v -0.143326 0.657088 0.316773
v -0.121790 0.657088 0.316773
v -0.121790 0.657088 0.294687
v -0.121790 0.657088 0.272602
v -0.121790 0.679174 0.272602
v -0.143326 0.657088 0.272602
v -0.143326 0.679174 0.272602
v -0.121790 0.966288 0.272602
v -0.121790 0.944203 0.272602
v -0.143326 0.944203 0.272602
v -0.143326 0.966288 0.272602
v -0.121790 0.966288 0.294687
v -0.143326 0.966288 0.294687
v -0.143326 0.944203 0.294687
v -0.121790 0.944203 0.294687
v -0.121790 0.944203 0.316773
v -0.143326 0.944203 0.316773
v -0.121790 0.966288 0.316773
v -0.143326 0.966288 0.316773
v -0.121790 1.076717 0.294687
v -0.143326 1.076717 0.294687
v -0.143326 1.076717 0.316773
v -0.121790 1.076717 0.316773
v -0.121790 1.098253 0.316773
v -0.143326 1.098253 0.316773
v -0.143326 1.098253 0.294687
v -0.121790 1.098253 0.294687
v -0.121790 1.076717 0.272602
v -0.143326 1.076717 0.272602
v -0.121790 1.098253 0.272602
v -0.143326 1.098253 0.272602
v -0.175604 -0.003083 0.223606
v 0.266109 -0.003083 0.223606
v 0.266109 1.606161 0.223606
v -0.175604 1.606161 0.223606
vn 0.0000 0.0000 -1.0000
vn -1.0000 0.0000 0.0000
vn 0.0000 1.0000 0.0000
vn 1.0000 0.0000 0.0000
vn 0.0000 -1.0000 0.0000
vn 0.0000 0.0000 1.0000
usemtl Aluminum
s off
f 1//1 2//1 3//1 4//1
f 3//2 5//2 6//2 4//2
f 7//3 1//3 4//3 6//3
f 1//4 7//4 8//4 2//4
f 2//5 8//5 5//5 3//5
f 7//4 9//4 10//4 8//4
f 6//3 11//3 9//3 7//3
f 5//2 12//2 11//2 6//2
f 9//6 11//6 12//6 10//6
f 10//4 13//4 14//4 8//4
f 12//6 15//6 13//6 10//6
f 5//2 16//2 15//2 12//2
f 8//1 14//1 16//1 5//1
f 16//2 17//2 18//2 15//2
f 15//6 18//6 19//6 13//6
f 13//4 19//4 20//4 14//4
f 20//5 19//5 18//5 17//5
f 20//4 21//4 22//4 14//4
f 17//5 23//5 21//5 20//5
f 16//2 24//2 23//2 17//2
f 14//3 22//3 24//3 16//3
f 22//1 21//1 23//1 24//1
f 25//1 26//1 27//1 28//1
f 29//3 25//3 28//3 30//3
f 30//2 28//2 27//2 31//2
f 31//5 27//5 26//5 32//5
f 32//4 26//4 25//4 29//4
f 32//5 33//5 34//5 31//5
f 35//4 33//4 32//4 29//4
f 36//6 34//6 33//6 35//6
f 30//2 31//2 34//2 36//2
f 37//1 29//1 30//1 38//1
f 38//2 30//2 36//2 39//2
f 39//6 36//6 35//6 40//6
f 40//4 35//4 29//4 37//4
f 41//6 42//6 39//6 40//6
f 38//2 39//2 42//2 43//2
f 43//3 42//3 41//3 44//3
f 44//4 41//4 40//4 37//4
f 45//5 37//5 38//5 46//5
f 47//4 44//4 37//4 45//4
f 48//3 43//3 44//3 47//3
f 46//2 38//2 43//2 48//2
f 46//1 48//1 47//1 45//1
f 49//6 50//6 51//6 52//6
o Cube_Cube_Material
v -0.175604 -0.003083 0.223606
v -0.175604 1.606161 0.223606
v -0.175604 1.606161 -0.218108
v -0.175604 -0.003083 -0.218108
v 0.266109 1.606161 -0.218109
v 0.266109 1.606161 0.223606
v 0.266109 -0.003083 0.223606
v 0.266109 -0.003083 -0.218108
v -0.176386 0.882764 0.277229
v -0.176386 1.605593 0.277229
v -0.176386 1.605593 0.233057
v -0.176386 0.882764 0.233057
v 0.265328 1.605593 0.233057
v 0.265328 1.605593 0.277229
v 0.265328 0.882764 0.277229
v 0.265328 0.882764 0.233057
v -0.176386 0.838537 0.277229
v 0.265328 0.838537 0.277229
v 0.265328 0.838537 0.233057
v -0.176386 0.838537 0.233057
v -0.176386 -0.000663 0.277229
v 0.265328 -0.000663 0.277229
v -0.176386 -0.000663 0.233057
v 0.265328 -0.000663 0.233057
vn -1.0000 0.0000 0.0000
vn 1.0000 -0.0000 0.0000
vn 0.0000 -0.0000 -1.0000
vn -0.0000 -1.0000 0.0000
vn 0.0000 1.0000 0.0000
vn 0.0000 -0.0000 1.0000
usemtl Material.001
s off
f 53//7 54//7 55//7 56//7
f 57//8 58//8 59//8 60//8
f 55//9 57//9 60//9 56//9
f 56//10 60//10 59//10 53//10
f 54//11 58//11 57//11 55//11
f 61//7 62//7 63//7 64//7
f 65//8 66//8 67//8 68//8
f 63//9 65//9 68//9 64//9
f 64//10 68//10 67//10 61//10
f 61//12 67//12 66//12 62//12
f 62//11 66//11 65//11 63//11
f 69//11 70//11 71//11 72//11
f 73//12 74//12 70//12 69//12
f 75//10 76//10 74//10 73//10
f 72//9 71//9 76//9 75//9
f 71//8 70//8 74//8 76//8
f 73//7 69//7 72//7 75//7
